<?xml version="1.0" encoding="utf-8"?>
<!-- Generator: Adobe Illustrator 27.9.0, SVG Export Plug-In . SVG Version: 6.00 Build 0)  -->
<svg version="1.1" id="Layer_1" xmlns="http://www.w3.org/2000/svg" xmlns:xlink="http://www.w3.org/1999/xlink" x="0px" y="0px"
	 viewBox="0 0 713.6 192.3" style="enable-background:new 0 0 713.6 192.3;" xml:space="preserve">
<style type="text/css">
	.st0{fill:#FFFFFF;}
</style>
<g>
	<path d="M97.2,35.5c32.9,0,59.9,27,59.9,60.2c0,33.2-26.8,60-59.9,60c-33,0-59.7-27.3-59.7-60.3S64.2,35.5,97.2,35.5z M87.5,97.2
		l11.8,8.6c2.6,1.8,4.7,3.6,4.7,6.1c0,2.7-2,4.4-5.4,4.4H77.2v14.3h21.5c11.1,0,20.9-5,20.9-18.2c0-9.1-6.2-14.7-13-19.5l-11.2-8
		c-2.6-1.8-4.5-3.5-4.5-6s2-4,5.8-4h18.8V60.6H95.9C79.8,60.6,75,70.5,75,78C75,86.7,81.1,92.6,87.5,97.2z"/>
	<path d="M226.8,35.5c32.9,0,59.9,27,59.9,60.2c0,33.2-26.8,60-59.9,60c-33,0-59.7-27.3-59.7-60.3S193.8,35.5,226.8,35.5z
		 M209.8,130.6h15.5V102h18.1V87.9h-18.1V74.7H245V60.6h-35.2V130.6z"/>
	<path d="M356.4,35.5c32.9,0,59.9,27,59.9,60.2c0,33.2-26.8,60-59.9,60c-33,0-59.7-27.3-59.7-60.3S323.4,35.5,356.4,35.5z
		 M337,130.6h39v-14.1h-23.5V102h21.8V88.1h-21.8V74.7H376V60.6h-39V130.6z M348.1,52.9l1.1,4.1l20.9-5.8l-1.2-4.3L348.1,52.9z"/>
	<path d="M486,35.5c32.9,0,59.9,27,59.9,60.2c0,33.2-26.8,60-59.9,60c-33,0-59.7-27.3-59.7-60.3S453,35.5,486,35.5z M464.6,130.6
		h15.5v-27.7h8l9.4,27.7h17.1l-11.9-30.9c6.7-3.8,10-10.6,10-18c0-11.6-8.3-21.1-23.2-21.1h-24.9V130.6z M480.9,90V74.6h8.8
		c5.5,0,8.6,3.3,8.6,7.8c0,4.2-3.1,7.6-8.6,7.6H480.9z"/>
	<path d="M615.7,35c33,0,60,27.1,60,60.2c0,33.2-27,60.4-60.1,60.4c-33,0-59.8-27.2-59.8-60.1C555.9,62.5,582.8,35,615.7,35z
		 M585.2,130.6H601l3.1-12.1h21.8l3,12.1h16.6l-15-55.6c-2.6-9.8-6.5-15.1-14.7-15.1c-8.8,0-12.2,5.4-15,15.3L585.2,130.6z
		 M607.8,105.2l7.7-29.9l7.3,29.9H607.8z"/>
</g>
</svg>
