<?xml version="1.0" encoding="UTF-8"?>
<svg id="WHITE" xmlns="http://www.w3.org/2000/svg" viewBox="0 0 708.66 184.25">
  <defs>
    <style>
      .cls-1 {
        fill: #fff;
      }
    </style>
  </defs>
  <path class="cls-1" d="M94.9,32.28c32.9,0,59.89,27,59.89,60.19s-26.8,60-59.89,60-59.69-27.3-59.69-60.29,26.7-59.89,59.69-59.89ZM85.2,93.98l11.8,8.6c2.6,1.8,4.7,3.6,4.7,6.1,0,2.7-2,4.4-5.4,4.4h-21.4v14.3h21.5c11.1,0,20.9-5,20.9-18.2,0-9.1-6.2-14.7-13-19.5l-11.2-8c-2.6-1.8-4.5-3.5-4.5-6s2-4,5.8-4h18.8v-14.3h-19.6c-16.1,0-20.9,9.9-20.9,17.4,0,8.7,6.1,14.6,12.5,19.2Z"/>
  <path class="cls-1" d="M224.49,32.28c32.9,0,59.89,27,59.89,60.19s-26.8,60-59.89,60-59.69-27.3-59.69-60.29,26.7-59.89,59.69-59.89ZM207.49,127.37h15.5v-28.6h18.1v-14.1h-18.1v-13.2h19.7v-14.1h-35.2v69.99Z"/>
  <path class="cls-1" d="M354.08,32.28c32.9,0,59.89,27,59.89,60.19s-26.8,60-59.89,60-59.69-27.3-59.69-60.29,26.7-59.89,59.69-59.89ZM334.68,127.37h39v-14.1h-23.5v-14.5h21.8v-13.9h-21.8v-13.4h23.5v-14.1h-39v69.99ZM345.78,49.68l1.1,4.1,20.9-5.8-1.2-4.3-20.8,6Z"/>
  <path class="cls-1" d="M483.67,32.28c32.9,0,59.89,27,59.89,60.19s-26.8,60-59.89,60-59.69-27.3-59.69-60.29,26.7-59.89,59.69-59.89ZM462.27,127.37h15.5v-27.7h8l9.4,27.7h17.1l-11.9-30.9c6.7-3.8,10-10.6,10-18,0-11.6-8.3-21.1-23.2-21.1h-24.9v69.99ZM478.57,86.78v-15.4h8.8c5.5,0,8.6,3.3,8.6,7.8,0,4.2-3.1,7.6-8.6,7.6h-8.8Z"/>
  <path class="cls-1" d="M613.46,31.78c33,0,59.99,27.1,59.99,60.19s-27,60.39-60.09,60.39-59.79-27.2-59.79-60.09,27-60.5,59.89-60.5ZM582.97,127.37h15.8l3.1-12.1h21.8l3,12.1h16.6l-15-55.59c-2.6-9.8-6.5-15.1-14.7-15.1-8.8,0-12.2,5.4-15,15.3l-15.6,55.4ZM605.57,101.98l7.7-29.9,7.3,29.9h-15Z"/>
</svg>